#!OML:ASF H:\Terrain\Patient Classification 1\Walking\liu\liu.ASF
:FULLY-SPECIFIED
:DEGREES
1
root 7.5514 15.923 -40.3324 7.05373 -2.20224 -3.98785
lowerback -2.60946 -0.102232 1.55785
upperback -0.557657 -0.210319 3.00254
thorax 0.897061 -0.104282 2.19971
lowerneck -18.1347 -4.05186 -11.0833
upperneck 18.0637 -5.11779 11.7943
head 9.27447 -1.91673 5.26313
rclavicle -6.53505e-015 1.03368e-014
rhumerus -37.2089 18.9892 -89.6591
rradius 39.7899
rwrist -20.0925
rhand -30.1949 -24.0387
rfingers 7.12502
rthumb -3.50572 -53.9896
lclavicle -6.53505e-015 1.03368e-014
lhumerus -46.3351 -13.9149 96.7412
lradius 30.1959
lwrist 7.25908
lhand -11.6462 -19.3885
lfingers 7.12502
lthumb 14.3979 10.0921
rfemur -14.3203 4.47729 30.2197
rtibia 27.5699
rfoot -17.5721 4.04349
rtoes -3.15233
lfemur -37.2769 11.458 -18.1673
ltibia 68.9099
lfoot -11.1022 14.3613
ltoes 36.8211
2
root 7.54248 15.9241 -40.2056 7.27907 -2.23628 -4.70672
lowerback -2.11928 0.0508735 2.12519
upperback -0.750521 0.00536138 3.18043
thorax 0.418739 0.00323222 2.07042
lowerneck -18.3574 -4.10843 -10.8767
upperneck 18.1178 -5.19878 11.6231
head 9.33379 -1.95081 5.15584
rclavicle 2.93207e-015 -2.62396e-014
rhumerus -36.876 19.5487 -89.642
rradius 40.7469
rwrist -20.4105
rhand -30.0335 -23.4599
rfingers 7.12502
rthumb -3.34981 -53.4133
lclavicle 2.93207e-015 -2.62396e-014
lhumerus -47.4329 -13.2136 96.3887
lradius 30.5804
lwrist 6.69725
lhand -9.75586 -21.4719
lfingers 7.12502
lthumb 16.2187 7.86964
rfemur -13.7209 5.10407 31.0937
rtibia 27.0372
rfoot -18.0226 3.52476
rtoes -6.38621
lfemur -39.0768 11.6108 -17.621
ltibia 67.6765
lfoot -10.9232 13.9011
ltoes 21.0511
3
root 7.53174 15.9106 -40.0748 7.6318 -2.21609 -5.38792
lowerback -1.7577 0.229567 2.74465
upperback -1.00709 0.260326 3.22891
thorax -0.0500529 0.126942 1.77696
lowerneck -18.4038 -4.24016 -10.5832
upperneck 18.224 -5.45541 11.5497
head 9.40149 -2.05539 5.04543
rclavicle -1.2921e-014 4.45278e-014
rhumerus -36.4386 19.7482 -89.7284
rradius 41.407
rwrist -20.5814
rhand -30.0784 -24.2396
rfingers 7.12502
rthumb -3.39316 -54.1924
lclavicle -1.2921e-014 4.45278e-014
lhumerus -48.3206 -13.0698 96.1306
lradius 30.6065
lwrist 6.91567
lhand -10.6585 -20.6115
lfingers 7.12502
lthumb 15.3494 8.79883
rfemur -13.487 5.75621 31.9516
rtibia 27.0646
rfoot -18.8708 2.87669
rtoes -7.91375
lfemur -40.7912 11.3355 -17.0248
ltibia 65.8744
lfoot -10.6105 13.0945
ltoes 0.0949564
4
root 7.53358 15.8863 -39.9209 7.8604 -2.32452 -5.59732
lowerback -1.76625 0.370667 2.80752
upperback -1.07055 0.449888 3.3392
thorax -0.112967 0.221285 1.85839
lowerneck -19.0218 -4.28227 -11.3987
upperneck 19.0529 -5.50683 12.4864
head 9.86637 -2.01648 5.54763
rclavicle -1.11071e-014 3.18055e-014
rhumerus -35.8463 20.3218 -89.4949
rradius 41.931
rwrist -20.8183
rhand -30.3365 -25.1218
rfingers 7.12502
rthumb -3.64246 -55.0704
lclavicle -1.11071e-014 3.18055e-014
lhumerus -48.9805 -12.9899 96.3023
lradius 30.3207
lwrist 7.17613
lhand -11.9004 -20.088
lfingers 7.12502
lthumb 14.153 9.40997
rfemur -12.9978 5.88975 32.2249
rtibia 26.8407
rfoot -19.1924 2.71261
rtoes -7.57226
lfemur -41.6672 10.6849 -16.8977
ltibia 63.6043
lfoot -10.9167 13.1307
ltoes -11.5889
5
root 7.5462 15.8843 -39.7376 7.83364 -2.64649 -5.29482
lowerback -2.58099 0.392501 1.76905
upperback -0.535693 0.434425 3.94537
thorax 0.880433 0.217871 3.07655
lowerneck -18.6732 -4.27713 -11.7455
upperneck 18.161 -5.21774 11.906
head 9.4421 -1.98148 5.40607
rclavicle 2.93207e-015 -1.78906e-014
rhumerus -34.5808 22.11 -88.2794
rradius 42.5258
rwrist -21.3356
rhand -30.9487 -24.7931
rfingers 7.12502
rthumb -4.23363 -54.7308
lclavicle 2.93207e-015 -1.78906e-014
lhumerus -48.4328 -11.6449 96.7438
lradius 29.23
lwrist 6.63774
lhand -9.19457 -20.937
lfingers 7.12502
lthumb 16.7591 8.35967
rfemur -12.1288 5.68415 31.8482
rtibia 26.682
rfoot -19.3961 3.01205
rtoes -6.33048
lfemur -41.5896 10.3734 -17.4133
ltibia 60.657
lfoot -11.8127 12.8707
ltoes -12.8463
6
root 7.55822 15.926 -39.5363 7.62437 -3.01026 -4.56384
lowerback -2.33217 0.503585 1.66887
upperback -0.722648 0.609101 3.26157
thorax 0.548518 0.305848 2.42741
lowerneck -18.2334 -4.05358 -11.2637
upperneck 17.7864 -5.0696 11.9522
head 9.20062 -1.88754 5.34983
rclavicle 4.32357e-015 -5.1684e-015
rhumerus -34.5782 22.1561 -88.9583
rradius 43.008
rwrist -21.207
rhand -31.493 -24.008
rfingers 7.12502
rthumb -4.75923 -53.9345
lclavicle 4.32357e-015 -5.1684e-015
lhumerus -49.4932 -11.6838 96.1888
lradius 29.0235
lwrist 6.86782
lhand -14.2665 -18.2366
lfingers 7.12502
lthumb 11.8721 11.4068
rfemur -10.9096 5.05564 30.9498
rtibia 26.318
rfoot -19.54 3.81932
rtoes -5.11784
lfemur -41.2655 10.2188 -18.3358
ltibia 57.3714
lfoot -11.7182 12.6376
ltoes -13.8806
7
root 7.5658 15.9334 -39.3527 7.56899 -3.29333 -4.10374
lowerback -2.856 0.582832 0.953654
upperback -0.328358 0.701297 3.35572
thorax 1.23406 0.348036 2.93978
lowerneck -18.8832 -4.05886 -11.9264
upperneck 17.8552 -4.92072 12.393
head 9.35359 -1.79819 5.64849
rclavicle 1.49089e-016 -1.59028e-015
rhumerus -33.2909 22.9884 -88.2193
rradius 43.351
rwrist -21.4823
rhand -31.5351 -24.1329
rfingers 7.12502
rthumb -4.79986 -54.0585
lclavicle 1.49089e-016 -1.59028e-015
lhumerus -49.443 -11.0025 96.2289
lradius 28.8086
lwrist 6.71677
lhand -16.5947 -16.7317
lfingers 7.12502
lthumb 9.6264 13.0283
rfemur -9.79032 5.16441 30.3964
rtibia 25.7001
rfoot -19.7209 4.01893
rtoes -4.44057
lfemur -41.2563 9.69114 -18.6928
ltibia 53.9078
lfoot -11.1399 12.6303
ltoes -12.0005
8
root 7.56859 15.9396 -39.1864 7.71426 -3.54277 -4.164
lowerback -3.43311 0.723329 0.778426
upperback 0.0120638 0.863141 3.53066
thorax 1.89519 0.422542 3.23994
lowerneck -19.4324 -4.13416 -12.45
upperneck 18.0103 -4.89725 12.7269
head 9.52827 -1.77176 5.87212
rclavicle -1.04859e-014 -3.18055e-015
rhumerus -31.9762 23.6326 -87.4609
rradius 43.7541
rwrist -21.6898
rhand -31.4389 -25.4401
rfingers 7.12502
rthumb -4.70697 -55.3678
lclavicle -1.04859e-014 -3.18055e-015
lhumerus -49.461 -10.4112 96.112
lradius 28.4949
lwrist 6.2909
lhand -16.7558 -17.0683
lfingers 7.12502
lthumb 9.471 12.6989
rfemur -8.80501 5.57477 30.4442
rtibia 24.8038
rfoot -19.6142 3.93612
rtoes -3.70625
lfemur -41.151 9.62032 -18.7593
ltibia 50.992
lfoot -11.876 12.2346
ltoes -9.69899
9
root 7.57273 15.9509 -39.0184 7.74737 -3.69181 -4.27797
lowerback -3.50228 0.837255 0.97657
upperback 0.0858424 1.0037 3.46474
thorax 2.00736 0.494069 3.06929
lowerneck -19.4157 -4.14443 -12.5428
upperneck 17.9856 -4.93251 12.9395
head 9.53066 -1.7727 5.96087
rclavicle -1.74434e-014 -1.27222e-014
rhumerus -31.3098 23.9264 -87.2771
rradius 44.2369
rwrist -21.5553
rhand -31.7384 -26.747
rfingers 7.12502
rthumb -4.99613 -56.6681
lclavicle -1.74434e-014 -1.27222e-014
lhumerus -49.7402 -10.4746 96.0197
lradius 27.689
lwrist 6.44963
lhand -16.6372 -20.1325
lfingers 7.12502
lthumb 9.58542 9.62944
rfemur -7.73171 5.01125 30.5129
rtibia 23.8306
rfoot -19.1778 4.5833
rtoes -3.33047
lfemur -41.2214 9.47519 -18.7268
ltibia 47.97
lfoot -11.6148 12.3515
ltoes -12.0415
10
root 7.58059 15.9575 -38.8588 7.86278 -3.74982 -4.5003
lowerback -3.38831 0.889901 1.22652
upperback 0.0277087 1.06847 3.51954
thorax 1.88423 0.529264 2.98533
lowerneck -19.2934 -4.16656 -12.7363
upperneck 17.9502 -4.952 13.0922
head 9.50849 -1.78326 6.04637
rclavicle 1.01877e-014 -1.66979e-014
rhumerus -30.7241 24.3391 -87.0706
rradius 44.5904
rwrist -21.5808
rhand -32.3275 -26.3111
rfingers 7.12502
rthumb -5.56489 -56.218
lclavicle 1.01877e-014 -1.66979e-014
lhumerus -49.8282 -10.0018 95.7589
lradius 26.3755
lwrist 6.24576
lhand -15.2157 -29.5756
lfingers 7.12502
lthumb 10.9567 0.118481
rfemur -6.67508 4.52313 30.677
rtibia 22.6127
rfoot -18.82 5.07918
rtoes -2.47093
lfemur -41.63 9.29805 -18.5538
ltibia 45.1427
lfoot -11.2654 12.0793
ltoes -13.5665
11
root 7.59641 15.9545 -38.7078 8.08356 -3.64079 -4.87207
lowerback -3.18758 0.915893 1.58595
upperback -0.14154 1.1004 3.68498
thorax 1.59993 0.548764 2.94916
lowerneck -19.2526 -4.22373 -12.8322
upperneck 18.1177 -5.00906 13.0305
head 9.5682 -1.82467 6.03775
rclavicle -1.13307e-014 2.82274e-014
rhumerus -30.222 24.7185 -86.7601
rradius 44.9496
rwrist -21.7447
rhand -32.7424 -26.031
rfingers 7.12502
rthumb -5.96549 -55.9271
lclavicle -1.13307e-014 2.82274e-014
lhumerus -50.6631 -9.08541 95.2703
lradius 26.5797
lwrist 5.65452
lhand -12.8454 -21.0593
lfingers 7.12502
lthumb 13.2423 8.50009
rfemur -5.77709 4.07967 31.0114
rtibia 21.363
rfoot -18.424 5.31297
rtoes -2.60044
lfemur -42.0223 8.88737 -18.1838
ltibia 42.0545
lfoot -10.9169 11.799
ltoes -13.0725
